{"title":"4K Cumshot Compilation Master Mix - 16 Video Streams in One -RE","uid":10689793,"size":7289266874,"categoryP":"porn","categoryS":"other","magnet":"?xt=urn:btih:d965d750e3d91dce2bcb4ad9f40f81e633439af0&amp;dn=+4K+Cumshot+Compilation+Master+Mix+-+16+Video+Streams+in+One+-RE&amp;tr=udp%3A%2F%2Ftracker.openbittorrent.com%3A80&amp;tr=udp%3A%2F%2Fopen.demonii.com%3A1337&amp;tr=udp%3A%2F%2Ftracker.coppersurfer.tk%3A6969&amp;tr=udp%3A%2F%2Fexodus.desync.com%3A6969","seeders":5,"leechers":1,"uploader":"harbinger92","files":-1,"time":1407105421,"description":"I must have made a mistake on the original upload, so those of you stuck at 99.8% should be able to pick this one up and keep going, sorry!\n\n- - - - - - - - - - - - - - - - - - - - - - - - -\n &lt;a href=&quot;\nhttp://bayimg.com/IaPnOAAFJ&quot; rel=&quot;nofollow&quot; target=&quot;_NEW&quot;&gt;\nhttp://bayimg.com/IaPnOAAFJ&lt;/a&gt;\n\n- - - - - - - - - - - - - - - - - - - - - - - - -\n\nNot all users mentioned may have been used, but hey, credit where credit is due.  Also included are the original videos that were condensed. No music, because no matter what I put, either the garble of all of them going at once, or my own personal soundtrack, nothing fit. So for everyone that's ever complained about why the guy fucked up the video by putting music behind it, this time I didn't, and you get to supply your own.\n\n- - - - - - - - - - - - - - - - - - - - - - - - -\n\nThe original video was way longer, and I just let the shots gradually wind down, but at 45 minutes it felt lame to let it taper out like that. For what you're doing, 20 minutes should have you covered.\n\n- - - - - - - - - - - - - - - - - - - - - - - - -\n\nPresented in 4K resolution (4096 x 2160) as a high resolution assembly of native 480p compilations, organized and arranged in a 4 x 4 grid, for a twenty solid minute shooting spree of non stop pop shots. (while that means a combined running time of 20 - 16min videos of 320 minutes, the included compilations per category averaged 5-8 minutes, which means rotating categories popping up throughout! How fast can you guess EACH theme?)\n\n- - - - - - - - - - - - - - - - - - - - - - - - -\n\nI didn't see anything out there like this, so I did it for the greater good of the internet. You're welcome guys.\n\n- - - - - - - - - - - - - - - - - - - - - - - - -\n\nAs an added bonus on this torrent are the source files themselves in case you want to pick and choose a certain one and actually get the audio.  They're not related to the original file, so if that's not up your alley, just don't download.\n\n\nFormat                         : AVI\nFormat/Info                    : Audio Video Interleave\nFormat profile                 : OpenDML\nFile size                      : 3.31 GiB\nDuration                       : 20mn 1s\nOverall bit rate               : 23.7 Mbps\nWriting library                : VirtualDub build 35491/release\n\nVideo\nID                             : 0\nFormat                         : MPEG-4 Visual\nFormat profile                 : Advanced Simple@L5\nFormat settings, BVOP          : Yes\nFormat settings, QPel          : No\nFormat settings, GMC           : No warppoints\nFormat settings, Matrix        : Default (H.263)\nCodec ID                       : XVID\nCodec ID/Hint                  : XviD\nDuration                       : 20mn 1s\nBit rate                       : 22.9 Mbps\nWidth                          : 4 096 pixels\nHeight                         : 2 160 pixels\nDisplay aspect ratio           : 1.896\nFrame rate                     : 29.970 fps\nColor space                    : YUV\nChroma subsampling             : 4:2:0\nBit depth                      : 8 bits\nScan type                      : Progressive\nCompression mode               : Lossy\nBits/(Pixel*Frame)             : 0.086\nStream size                    : 3.21 GiB (97%)\nWriting library                : XviD 64\n\nAudio\nID                             : 1\nFormat                         : PCM\nFormat settings, Endianness    : Little\nFormat settings, Sign          : Signed\nCodec ID                       : 1\nDuration                       : 20mn 1s\nBit rate mode                  : Constant\nBit rate                       : 768 Kbps\nChannel count                  : 1 channel\nSampling rate                  : 48.0 KHz\nBit depth                      : 16 bits\nStream size                    : 110 MiB (3%)\nAlignment                      : Aligned on interleaves\nInterleave, duration           : 33 ms (1.00 video frame)\nInterleave, preload duration   : 500 ms\n\n\nsource\npornhub: \t-lambdasux\n\t\t-cabanski\n\t\t-boomstock\n\t\t-cumshotviking\n\t\t-frogman304\n\t\t-ericthedon69\n\t\t-bagofdonkeyasses\n\t\t-sof_tal\n\t\t-duensch\n\t\t-leglou\n\nHappy Fapping\n\t-Chalupacabrador Retriever","torrent":{"xt":"urn:btih:d965d750e3d91dce2bcb4ad9f40f81e633439af0","amp;dn":"+4K+Cumshot+Compilation+Master+Mix+-+16+Video+Streams+in+One+-RE","amp;tr":["udp%3A%2F%2Ftracker.openbittorrent.com%3A80","udp%3A%2F%2Fopen.demonii.com%3A1337","udp%3A%2F%2Ftracker.coppersurfer.tk%3A6969","udp%3A%2F%2Fexodus.desync.com%3A6969"],"infoHash":"d965d750e3d91dce2bcb4ad9f40f81e633439af0","infoHashBuffer":{"type":"Buffer","data":[217,101,215,80,227,217,29,206,43,203,74,217,244,15,129,230,51,67,154,240]},"announce":[],"urlList":[]}}